<svg width="24" height="24" viewBox="0 0 24 24" fill="none" xmlns="http://www.w3.org/2000/svg">
<path d="M6.21584 7.98822C6.2478 7.90744 6.46402 7.71185 6.54089 7.63588L7.26186 6.93655C7.82489 6.38467 8.3723 5.81655 8.9459 5.27444C9.15839 5.07362 9.25623 4.97084 9.5752 4.97679C9.70673 4.97755 10.1684 4.96997 10.2696 4.98182L13.7149 4.98003L14.6742 4.97918C15.069 4.97912 15.407 4.94677 15.7177 5.25794C15.9534 5.49403 16.0208 5.7107 16.0215 6.03978L16.0195 6.65297C16.4166 6.65267 16.7532 6.59518 17.0487 6.89372C17.1633 7.01052 17.2411 7.1584 17.2725 7.31902C17.2936 7.43335 17.2875 7.64018 17.2873 7.7631L17.2857 8.44567C17.2841 9.15585 17.2949 9.88139 17.2864 10.5886C17.2862 10.6067 17.2855 10.6248 17.2844 10.6429C17.2778 10.7143 17.2721 10.7532 17.2578 10.8233C17.1056 11.1074 17.0403 10.9665 16.9241 11.062C16.9005 11.1103 16.9196 11.1562 16.9327 11.2106C17.0996 11.2229 17.2878 11.3075 17.4261 11.3989C17.6508 11.2618 17.9843 10.945 18.2293 11.0307C18.4063 11.0927 18.9381 11.6402 19.0707 11.8075C19.1187 11.8679 19.11 12.1451 19.0816 12.2223C19.0221 12.3848 18.8539 12.55 18.7521 12.6957C18.825 12.8453 18.8748 12.9867 18.9287 13.1439C19.202 13.1845 19.7408 13.191 19.7705 13.5352C19.7982 13.8582 19.7865 14.2683 19.7631 14.5962C19.7562 14.6937 19.665 14.8238 19.5857 14.8763C19.4543 14.961 19.0658 14.9978 18.9121 15.0026C18.849 15.1471 18.7963 15.2623 18.7128 15.3986C18.8188 15.5448 19.0529 15.8407 19.1006 15.9899C19.1091 16.1943 19.1353 16.2972 18.982 16.4576C18.8173 16.6298 18.6296 16.8074 18.4629 16.972C18.1431 17.2875 17.8905 17.0944 17.6071 16.8681C17.5496 16.8224 17.4746 16.7678 17.4144 16.7221C17.2852 16.7801 17.0894 16.8522 16.9527 16.8945C16.8354 17.96 16.6167 17.7763 15.6683 17.7725C15.2796 17.7711 15.2103 17.1745 15.1724 16.8922C15.0251 16.8352 14.8884 16.7814 14.7441 16.7173C14.4546 16.9233 14.1684 17.2598 13.7978 17.0565L13.7278 16.9988C13.577 16.8526 13.4275 16.7053 13.2792 16.5566C13.0969 16.7188 13.0863 16.7215 13.0018 16.9465C13.0433 16.9872 13.1515 17.0975 13.1923 17.1268C13.2496 17.1833 13.3764 17.3183 13.4442 17.3452L13.4498 17.3685C13.4171 17.3822 13.2311 17.3718 13.1841 17.3711C13.0262 17.3699 12.8682 17.3698 12.7104 17.3705L10.8356 17.37L8.27877 17.3708L7.48231 17.3713C7.3394 17.3713 7.13204 17.3763 6.99405 17.3637C6.82396 17.3484 6.66107 17.2879 6.52238 17.1882C6.30363 17.0305 6.15709 16.7918 6.11543 16.5254C6.08641 16.3378 6.09935 15.7691 6.0991 15.5517L6.09812 13.5744L6.0986 10.1367L6.09785 8.97692C6.09768 8.73961 6.09561 8.4989 6.10627 8.26183C6.11107 8.15516 6.15358 8.07296 6.21584 7.98822Z" fill="#FEFEFE"/>
<path d="M15.1827 11.2608C15.1925 11.11 15.2263 10.9629 15.2565 10.8152C15.3005 10.5998 15.3907 10.3691 15.6438 10.3462C15.6889 10.3608 15.705 10.3563 15.7254 10.387C15.6944 10.4147 15.6694 10.4168 15.6289 10.427C15.9117 10.4257 16.2538 10.4147 16.5349 10.4385C16.5667 10.4412 16.6106 10.4704 16.6357 10.49C16.6587 10.4594 16.6612 10.4574 16.6903 10.4322C16.8562 10.5919 16.8294 10.7992 16.8973 10.9978C17.034 10.9556 17.145 10.9162 17.2578 10.8233C17.1056 11.1073 17.0403 10.9665 16.9241 11.0619C16.9005 11.1103 16.9196 11.1562 16.9326 11.2106C17.0996 11.2229 17.2878 11.3075 17.4261 11.3988C17.6508 11.2618 17.9843 10.945 18.2293 11.0307C18.4063 11.0927 18.9381 11.6402 19.0707 11.8074C19.1187 11.8679 19.11 12.1451 19.0816 12.2223C19.0221 12.3848 18.8539 12.5499 18.7521 12.6957C18.825 12.8453 18.8748 12.9867 18.9287 13.1439C19.202 13.1845 19.7408 13.191 19.7705 13.5351C19.7982 13.8582 19.7865 14.2683 19.7631 14.5962C19.7562 14.6937 19.665 14.8237 19.5857 14.8762C19.4543 14.961 19.0658 14.9978 18.9121 15.0026C18.849 15.1471 18.7963 15.2623 18.7128 15.3985C18.8188 15.5448 19.0529 15.8407 19.1006 15.9899C19.1091 16.1942 19.1353 16.2971 18.982 16.4576C18.8173 16.6298 18.6296 16.8074 18.4629 16.972C18.1431 17.2875 17.8905 17.0944 17.6071 16.8681C17.5496 16.8224 17.4746 16.7678 17.4144 16.7221C17.2851 16.7801 17.0894 16.8521 16.9527 16.8944C16.8354 17.96 16.6167 17.7763 15.6683 17.7725C15.2796 17.7711 15.2103 17.1745 15.1724 16.8922C15.0251 16.8351 14.8884 16.7814 14.7441 16.7173C14.4546 16.9233 14.1684 17.2598 13.7978 17.0565L13.7278 16.9987C13.577 16.8526 13.4275 16.7053 13.2792 16.5566C13.0841 16.3601 12.9817 16.1645 13.1057 15.8887C13.1467 15.8095 13.3664 15.5121 13.4239 15.4367C13.3551 15.2919 13.2853 15.151 13.2288 15.0009C12.9085 14.9672 12.4762 14.9761 12.4195 14.5707C12.3917 14.4395 12.4229 13.9721 12.4092 13.8054C12.3954 13.637 12.4182 13.4574 12.5396 13.3264C12.6565 13.2003 13.0864 13.1648 13.2521 13.1708C13.2892 12.9402 13.3848 12.8816 13.4276 12.7359C13.3577 12.6562 13.2735 12.5468 13.2134 12.4602C13.0587 12.2371 13.0316 12.1394 13.076 11.8793C13.1469 11.659 13.5235 11.379 13.6739 11.2045C13.7853 11.0751 13.9918 10.9682 14.1561 11.0404C14.3559 11.1282 14.5956 11.3212 14.7666 11.4578C14.876 11.3625 15.0422 11.2929 15.1827 11.2608Z" fill="#FF8A12"/>
<path d="M13.1057 15.8887C13.1686 15.9406 13.1779 16.1085 13.2161 16.1383C13.405 16.2856 13.7945 16.8109 14.0249 16.8031C14.1786 16.7978 14.6148 16.4643 14.7704 16.3671C14.8925 16.4352 15.155 16.5552 15.293 16.5939C15.5103 17.6425 15.4444 17.48 16.5435 17.4655C16.7649 17.4626 16.866 16.7368 16.8945 16.5699C17.0536 16.5374 17.2664 16.4556 17.4181 16.388C17.5305 16.4598 17.7164 16.5921 17.8166 16.6664C18.2106 16.9581 18.2969 16.7916 18.5839 16.499C18.753 16.3323 18.9405 16.1863 19.1007 15.9898C19.1091 16.1942 19.1354 16.2971 18.9821 16.4575C18.8173 16.6298 18.6297 16.8073 18.4629 16.972C18.1431 17.2874 17.8906 17.0943 17.6071 16.868C17.5497 16.8223 17.4747 16.7677 17.4145 16.722C17.2852 16.78 17.0895 16.8521 16.9527 16.8944C16.8354 17.96 16.6168 17.7762 15.6684 17.7725C15.2796 17.7711 15.2104 17.1745 15.1724 16.8921C15.0251 16.8351 14.8885 16.7813 14.7441 16.7172C14.4546 16.9232 14.1685 17.2598 13.7978 17.0564L13.7279 16.9987C13.577 16.8525 13.4275 16.7052 13.2793 16.5565C13.0841 16.36 12.9817 16.1644 13.1057 15.8887Z" fill="#E74803"/>
<path d="M12.4196 14.5704C12.4214 14.4969 12.4244 14.4236 12.4282 14.3501C12.7068 14.7283 12.9511 14.6514 13.3898 14.7356C13.4604 14.939 13.5108 15.071 13.6057 15.2671C13.5671 15.3197 13.4948 15.4328 13.4366 15.4532L13.424 15.4364C13.3552 15.2916 13.2853 15.1507 13.2289 15.0006C12.9086 14.9669 12.4763 14.9758 12.4196 14.5704Z" fill="#E74803"/>
<path d="M13.076 11.8789C13.1521 11.9168 13.1999 12.035 13.2489 12.112C13.3441 12.2616 13.4867 12.4016 13.5532 12.5645L13.5607 12.5825C13.5621 12.5862 13.5635 12.5899 13.5649 12.5935C13.5225 12.6362 13.4652 12.6905 13.4276 12.7355C13.3577 12.6559 13.2735 12.5464 13.2134 12.4598C13.0587 12.2367 13.0316 12.1391 13.076 11.8789Z" fill="#E74803"/>
<path d="M15.9394 12.403C16.7998 12.325 17.5614 12.9571 17.6433 13.8171C17.7251 14.6771 17.0964 15.4416 16.2369 15.5272C15.3717 15.6136 14.6014 14.98 14.519 14.1145C14.4366 13.249 15.0735 12.4815 15.9394 12.403Z" fill="#FEFEFE"/>
<path d="M6.21584 7.98822C6.2478 7.90744 6.46402 7.71185 6.54089 7.63588L7.26186 6.93655C7.82489 6.38467 8.3723 5.81655 8.9459 5.27444C9.15839 5.07362 9.25623 4.97084 9.5752 4.97679C9.70673 4.97755 10.1684 4.96997 10.2696 4.98182C10.4423 5.04096 11.2173 4.94424 11.349 5.02683C11.3817 5.04736 11.6609 5.52855 11.6716 5.58353L11.6632 5.6098C11.4307 5.60743 11.1762 5.61117 10.9443 5.61072C10.7954 5.61042 10.3625 5.60648 10.2239 5.63464C10.1412 5.63592 10.0584 5.63665 9.97568 5.63683L9.97687 6.96243C9.97679 7.12558 9.98908 7.50839 9.95809 7.65046C9.91621 7.84347 9.82096 8.02082 9.68319 8.16232C9.55406 8.29541 9.39045 8.38996 9.21066 8.43537C9.0224 8.48127 8.57702 8.46278 8.35805 8.46469C7.85927 8.46907 7.3544 8.45835 6.85514 8.46698L6.85418 9.03401L6.85539 14.0868L6.85598 15.6034C6.85598 15.8461 6.85081 16.099 6.85903 16.3416C6.86162 16.4182 6.90377 16.4979 6.95691 16.5525C7.0491 16.6474 7.25503 16.641 7.38289 16.6327C7.71161 16.6113 8.07879 16.5388 8.40056 16.4678C9.73925 16.1722 10.9716 15.6422 11.9259 14.6313C11.9551 14.8808 12.0718 15.0646 12.2667 15.2188C12.2855 15.2339 12.3047 15.2486 12.3241 15.2629C12.5279 15.3765 12.5879 15.4058 12.8225 15.4234C12.6237 15.6558 12.5392 15.8825 12.5644 16.1896C12.5756 16.3399 12.6198 16.4859 12.6936 16.6173C12.798 16.7544 12.8764 16.8305 13.0018 16.9465C13.0433 16.9872 13.1515 17.0975 13.1923 17.1268C13.2496 17.1833 13.3764 17.3183 13.4442 17.3452L13.4498 17.3685C13.4171 17.3822 13.2311 17.3718 13.1841 17.3711C13.0262 17.3699 12.8682 17.3698 12.7104 17.3705L10.8356 17.37L8.27877 17.3708L7.48231 17.3713C7.3394 17.3713 7.13204 17.3763 6.99405 17.3637C6.82396 17.3484 6.66107 17.2879 6.52238 17.1882C6.30363 17.0305 6.15709 16.7918 6.11543 16.5254C6.08641 16.3378 6.09935 15.7691 6.0991 15.5517L6.09812 13.5744L6.0986 10.1367L6.09785 8.97692C6.09768 8.73961 6.09561 8.4989 6.10627 8.26183C6.11107 8.15516 6.15358 8.07296 6.21584 7.98822Z" fill="#1954A1"/>
<path d="M6.21582 7.98774C6.24778 7.90697 6.464 7.71138 6.54086 7.63541L7.26184 6.93608C7.82486 6.3842 8.37228 5.81607 8.94588 5.27396C9.15836 5.07315 9.2562 4.97037 9.57518 4.97632C9.46992 5.06624 9.4172 5.11267 9.41205 5.261C9.40538 5.45331 9.40873 5.65217 9.40921 5.84468L9.41019 6.88935C9.41101 7.18051 9.46988 7.61066 9.22757 7.81473C9.02659 7.98401 8.74107 7.93101 8.49157 7.93062L7.12856 7.93056C6.88198 7.93044 6.62062 7.92422 6.37555 7.9396C6.32649 7.94269 6.26271 7.96914 6.21582 7.98774Z" fill="#1FBECB"/>
<path d="M12.3241 15.2627C12.5279 15.3764 12.5879 15.4057 12.8225 15.4232C12.6236 15.6556 12.5391 15.8824 12.5643 16.1894C12.5756 16.3398 12.6198 16.4858 12.6936 16.6171C12.666 16.633 9.66991 16.6645 9.56824 16.6351C9.57482 16.6317 10.1537 16.4914 10.2249 16.4709C10.8121 16.3009 11.3303 16.0746 11.8294 15.7182C11.9708 15.6173 12.1436 15.5164 12.2602 15.3807C12.2736 15.3654 12.3098 15.2886 12.3241 15.2627Z" fill="#1861AE"/>
<path d="M10.2696 4.98165L13.715 4.97986L14.6743 4.97901C15.0691 4.97895 15.407 4.9466 15.7177 5.25777C15.9535 5.49386 16.0209 5.71053 16.0216 6.03961L16.0196 6.6528C16.4166 6.6525 16.7533 6.595 17.0487 6.89355C17.1633 7.01035 17.2412 7.15823 17.2726 7.31885C17.2937 7.43318 17.2876 7.64001 17.2873 7.76293L17.2858 8.4455C17.2842 9.15568 17.2949 9.88122 17.2865 10.5884C17.2863 10.6066 17.2856 10.6247 17.2845 10.6428C17.2656 10.5986 17.261 10.5413 17.254 10.4936C17.2232 10.279 17.0704 10.1241 16.8978 10.0049C16.7385 9.89498 16.5857 9.85515 16.3918 9.85393L15.8664 9.85505C15.8631 9.81162 15.8767 9.74981 15.8845 9.70514C15.8269 9.71683 15.8937 9.71369 15.8449 9.74758C15.8217 9.74503 15.7999 9.74338 15.7818 9.72839C15.7191 9.676 15.6236 9.69873 15.528 9.69772C15.5029 9.67161 15.5035 9.66589 15.4717 9.65346C15.4448 9.71032 15.4431 9.69705 15.3849 9.69392C15.3905 9.63659 15.3992 9.58544 15.3997 9.52713C15.4061 8.77188 15.3994 8.01643 15.4014 7.26109L15.4047 6.43624C15.4058 6.17486 15.4771 5.68661 15.1001 5.64334C14.9595 5.62719 14.7872 5.6362 14.6428 5.63622L13.7662 5.63633L10.7205 5.63657L10.224 5.63446C10.3625 5.6063 10.7955 5.61025 10.9443 5.61055C11.1763 5.611 11.4307 5.60725 11.6632 5.60963L11.6716 5.58336C11.6609 5.52838 11.3818 5.04719 11.349 5.02666C11.2174 4.94407 10.4424 5.04079 10.2696 4.98165Z" fill="#1D91DB"/>
<path d="M16.0195 6.65258C16.4165 6.65228 16.7532 6.59479 17.0486 6.89333C17.1633 7.01014 17.2411 7.15801 17.2725 7.31863C17.2936 7.43296 17.2875 7.6398 17.2872 7.76271L17.2857 8.44528C17.2841 9.15546 17.2949 9.88101 17.2864 10.5882C17.2862 10.6063 17.2855 10.6245 17.2844 10.6425C17.2656 10.5983 17.2609 10.5411 17.254 10.4933C17.2231 10.2788 17.0703 10.1239 16.8977 10.0047C16.7385 9.89476 16.5856 9.85493 16.3917 9.85371L15.8663 9.85484C15.8631 9.81141 15.8767 9.74959 15.8844 9.70492C16.0222 8.97693 16.0153 8.1621 16.0187 7.42207C16.0186 7.16352 16.0159 6.9119 16.0195 6.65258Z" fill="#1861AE"/>
<path d="M16.0187 7.42205C16.0836 7.42016 16.1942 7.42032 16.2525 7.41622C16.5612 7.39445 16.5354 7.53864 16.5409 7.78693C16.5426 7.86362 16.5406 7.954 16.5416 8.03195C16.5309 8.52233 16.5717 9.02599 16.5045 9.51265C16.4959 9.57785 16.4303 9.81119 16.3917 9.85369L15.8663 9.85481C15.8631 9.81138 15.8767 9.74957 15.8844 9.70489C16.0222 8.9769 16.0153 8.16207 16.0187 7.42205Z" fill="#1954A1"/>
<path d="M10.2239 5.63428L10.7203 5.63639L10.7228 6.58925C10.723 7.00058 10.7399 7.3032 10.6188 7.70737C10.3652 8.55421 9.45237 9.04088 8.60527 9.04018L7.51691 9.03602C7.33346 9.03642 7.02524 9.04755 6.85413 9.03365L6.85509 8.46662C7.35435 8.45799 7.85922 8.46871 8.358 8.46433C8.57697 8.46242 9.02235 8.48091 9.21061 8.43501C9.3904 8.3896 9.55401 8.29505 9.68314 8.16196C9.82091 8.02046 9.91617 7.84311 9.95804 7.6501C9.98903 7.50803 9.97674 7.12522 9.97682 6.96207L9.97563 5.63647C10.0584 5.63629 10.1411 5.63557 10.2239 5.63428Z" fill="#EEEEEE"/>
<path d="M15.6438 10.3461C15.797 10.3349 15.9771 10.3408 16.1321 10.3424C16.318 10.3443 16.5403 10.308 16.6903 10.4321C16.6612 10.4573 16.6586 10.4593 16.6357 10.4898C16.6106 10.4703 16.5666 10.4411 16.5349 10.4384C16.2537 10.4145 15.9117 10.4256 15.6289 10.4269C15.6693 10.4167 15.6944 10.4145 15.7254 10.3869C15.705 10.3562 15.6889 10.3606 15.6438 10.3461Z" fill="#FFBD0F"/>
<path d="M15.3849 9.69379C15.4431 9.69691 15.4447 9.71018 15.4717 9.65332C15.5035 9.66575 15.5029 9.67147 15.5279 9.69758C15.6236 9.69859 15.7191 9.67587 15.7818 9.72825C15.7998 9.74324 15.8216 9.74489 15.8448 9.74745C15.8937 9.71356 15.8269 9.7167 15.8844 9.705C15.8767 9.74967 15.8631 9.81149 15.8664 9.85492C15.6455 9.85301 15.5856 9.84858 15.3784 9.9152C15.385 9.83356 15.3858 9.77591 15.3849 9.69379Z" fill="#1861AE"/>
<path d="M8.54114 9.20025C9.57331 9.18909 10.6269 9.20036 11.6609 9.20021L12.8695 9.19971C13.0911 9.19964 13.3095 9.19733 13.5338 9.20309C13.8017 9.20998 13.9452 9.51529 13.8214 9.74134C13.7653 9.84343 13.6712 9.88557 13.5628 9.91398C13.2782 9.92297 12.9598 9.91646 12.6721 9.9164L11.0427 9.91665L9.49606 9.91634C9.20139 9.91655 8.90701 9.9173 8.61237 9.91472C8.43947 9.91319 8.30692 9.8335 8.25233 9.66208C8.22367 9.57158 8.23234 9.47336 8.27642 9.38928C8.33572 9.27607 8.42769 9.23512 8.54114 9.20025Z" fill="#2CD4AE"/>
<path d="M8.54131 10.665C9.25072 10.6505 10.0087 10.6637 10.7207 10.6636L11.7324 10.6636C11.8627 10.6636 12.3618 10.6477 12.4437 10.6901C12.7602 10.8543 12.7294 11.2703 12.3686 11.38C11.6155 11.3897 10.8419 11.3813 10.0872 11.3828L9.14694 11.3836C8.96565 11.3836 8.78731 11.3813 8.60055 11.3802C8.31513 11.3785 8.16068 11.1071 8.27734 10.8538C8.32434 10.7518 8.43468 10.6957 8.54131 10.665Z" fill="#1CA5E5"/>
<path d="M8.55187 12.1439C9.09135 12.1267 9.73846 12.1438 10.2869 12.1438L11.0603 12.1432C11.2156 12.1432 11.5577 12.1208 11.6789 12.1981C11.7579 12.2493 11.8131 12.3299 11.8322 12.4221C11.8764 12.6327 11.7488 12.8163 11.5367 12.8503C10.5643 12.8781 9.57427 12.8381 8.60028 12.8522C8.17846 12.8582 8.07413 12.2453 8.55187 12.1439Z" fill="#1CA5E5"/>
<path d="M15.1646 9.75098L15.1729 9.76292C15.1475 10.051 15.0332 10.1175 14.8845 10.3359C14.8272 10.4202 14.7906 10.6413 14.7251 10.734C14.6842 10.7506 14.6969 10.7452 14.6432 10.7282C14.614 10.7101 14.6142 10.7107 14.5912 10.6854C14.6101 10.5954 14.8518 10.2587 14.8974 10.1389C14.9425 10.0206 15.0889 9.8599 15.1646 9.75098Z" fill="#EEEEEE"/>
<path d="M12.6609 12.5894C12.6784 12.6236 12.6943 12.6644 12.7094 12.7L12.6011 12.7387L12.5833 12.7454L12.5732 12.7391C12.6163 12.6837 12.6412 12.658 12.6609 12.5894Z" fill="#EEEEEE"/>
<path d="M13.0018 16.946C13.0863 16.721 13.0969 16.7183 13.2792 16.5562C13.4275 16.7049 13.577 16.8522 13.7278 16.9983C13.5837 17.0976 13.5018 17.0768 13.3377 17.0979C13.2832 17.1049 13.2518 17.1243 13.1923 17.1264C13.1515 17.0971 13.0433 16.9867 13.0018 16.946Z" fill="#EEEEEE"/>
<path d="M13.7278 16.9985L13.7978 17.0563C13.7275 17.137 13.7289 17.1604 13.6822 17.2396C13.652 17.2908 13.5136 17.3029 13.4442 17.3449C13.3764 17.3181 13.2496 17.1831 13.1923 17.1266C13.2518 17.1245 13.2832 17.1052 13.3377 17.0981C13.5018 17.0771 13.5837 17.0978 13.7278 16.9985Z" fill="#7C7989"/>
</svg>
