<svg width="24" height="24" viewBox="0 0 24 24" fill="none" xmlns="http://www.w3.org/2000/svg">
<g clip-path="url(#clip0_410_276)">
<path d="M0.283815 6.08969C0.339484 5.94897 0.716145 5.60826 0.850041 5.47592L2.10598 4.25769C3.08677 3.2963 4.04038 2.30663 5.03959 1.36227C5.40974 1.01245 5.58017 0.833401 6.13583 0.843772C6.36495 0.845099 7.16917 0.831891 7.34542 0.85253L13.3472 0.849406L15.0183 0.847936C15.7061 0.847834 16.2948 0.791471 16.836 1.33353C17.2467 1.74481 17.3641 2.12225 17.3653 2.6955L17.3619 3.76368C18.0535 3.76315 18.64 3.663 19.1546 4.18307C19.3543 4.38654 19.4898 4.64415 19.5446 4.92394C19.5813 5.1231 19.5707 5.48341 19.5703 5.69753L19.5676 6.88657C19.5648 8.12371 19.5835 9.38761 19.5688 10.6196C19.5684 10.6511 19.5672 10.6827 19.5654 10.7142C19.5537 10.8385 19.5439 10.9062 19.519 11.0285C19.2539 11.5232 19.1401 11.278 18.9376 11.4442C18.8966 11.5284 18.9299 11.6084 18.9525 11.703C19.2434 11.7245 19.5713 11.8719 19.8122 12.031C20.2035 11.7923 20.7845 11.2404 21.2114 11.3898C21.5196 11.4977 22.446 12.4515 22.6771 12.7428C22.7606 12.8482 22.7455 13.331 22.6961 13.4655C22.5924 13.7486 22.2994 14.0363 22.122 14.2902C22.249 14.5507 22.3358 14.7971 22.4297 15.0709C22.9057 15.1417 23.8444 15.1529 23.896 15.7525C23.9444 16.3153 23.924 17.0296 23.8832 17.6008C23.8711 17.7706 23.7123 17.9972 23.5741 18.0887C23.3453 18.2363 22.6685 18.3004 22.4007 18.3087C22.2909 18.5604 22.199 18.7611 22.0537 18.9985C22.2382 19.2533 22.6461 19.7688 22.7292 20.0286C22.7439 20.3847 22.7896 20.5639 22.5226 20.8434C22.2355 21.1434 21.9087 21.4527 21.6182 21.7395C21.0611 22.2891 20.6212 21.9527 20.1274 21.5585C20.0273 21.4789 19.8967 21.3837 19.7918 21.3041C19.5666 21.4052 19.2257 21.5307 18.9875 21.6044C18.7831 23.4607 18.4022 23.1406 16.7501 23.134C16.0729 23.1316 15.9523 22.0923 15.8861 21.6005C15.6295 21.5011 15.3915 21.4074 15.14 21.2957C14.6358 21.6546 14.1373 22.2409 13.4916 21.8867L13.3697 21.7861C13.107 21.5315 12.8465 21.2749 12.5882 21.0159C12.2706 21.2984 12.2522 21.3031 12.105 21.695C12.1773 21.7659 12.3657 21.9582 12.4368 22.0092C12.5366 22.1076 12.7575 22.3428 12.8757 22.3895L12.8855 22.4301C12.8285 22.454 12.5043 22.4359 12.4225 22.4346C12.1475 22.4326 11.8723 22.4324 11.5973 22.4336L8.33151 22.4328L3.87743 22.4342L2.49001 22.435C2.24106 22.435 1.87983 22.4438 1.63945 22.4218C1.34316 22.3952 1.05941 22.2897 0.817808 22.1162C0.436737 21.8414 0.181458 21.4256 0.108886 20.9616C0.0583403 20.6347 0.0808774 19.644 0.0804487 19.2653L0.0787343 15.8209L0.0795716 9.83231L0.0782645 7.81201C0.0779787 7.39862 0.0743653 6.9793 0.0929421 6.56632C0.101292 6.38051 0.175355 6.2373 0.283815 6.08969Z" fill="#FEFEFE"/>
<path d="M15.9042 11.791C15.9213 11.5282 15.9801 11.2721 16.0328 11.0148C16.1093 10.6396 16.2665 10.2377 16.7075 10.1978C16.786 10.2232 16.814 10.2154 16.8495 10.2689C16.7956 10.3171 16.752 10.3207 16.6815 10.3385C17.1741 10.3363 17.77 10.317 18.2597 10.3586C18.3151 10.3633 18.3916 10.4141 18.4353 10.4482C18.4753 10.395 18.4798 10.3915 18.5304 10.3476C18.8195 10.6258 18.7727 10.9869 18.8909 11.3329C19.1292 11.2593 19.3225 11.1907 19.5191 11.0289C19.2539 11.5237 19.1402 11.2784 18.9377 11.4446C18.8967 11.5288 18.9299 11.6088 18.9526 11.7035C19.2435 11.7249 19.5713 11.8723 19.8122 12.0315C20.2036 11.7927 20.7846 11.2409 21.2114 11.3902C21.5197 11.4981 22.4461 12.452 22.6772 12.7433C22.7606 12.8486 22.7455 13.3314 22.6961 13.4659C22.5924 13.7491 22.2995 14.0367 22.1221 14.2907C22.2491 14.5511 22.3358 14.7975 22.4297 15.0713C22.9058 15.1421 23.8444 15.1534 23.8961 15.7529C23.9445 16.3157 23.924 17.03 23.8832 17.6012C23.8712 17.7711 23.7124 17.9977 23.5742 18.0891C23.3453 18.2367 22.6686 18.3008 22.4007 18.3092C22.2909 18.5609 22.1991 18.7616 22.0537 18.999C22.2382 19.2537 22.6461 19.7692 22.7292 20.0291C22.7439 20.3851 22.7896 20.5643 22.5226 20.8438C22.2356 21.1439 21.9088 21.4532 21.6183 21.74C21.0612 22.2895 20.6212 21.9531 20.1274 21.5589C20.0274 21.4793 19.8968 21.3842 19.7918 21.3045C19.5667 21.4056 19.2257 21.5311 18.9875 21.6048C18.7832 23.4611 18.4022 23.141 16.7501 23.1345C16.073 23.132 15.9523 22.0927 15.8862 21.601C15.6296 21.5015 15.3916 21.4078 15.1401 21.2962C14.6358 21.6551 14.1373 22.2413 13.4916 21.8872L13.3697 21.7865C13.107 21.532 12.8465 21.2754 12.5883 21.0163C12.2484 20.674 12.07 20.3332 12.286 19.8529C12.3574 19.7149 12.7402 19.1968 12.8404 19.0655C12.7206 18.8132 12.5989 18.5678 12.5005 18.3063C11.9426 18.2475 11.1895 18.263 11.0907 17.5569C11.0423 17.3283 11.0966 16.5142 11.0727 16.2237C11.0487 15.9303 11.0885 15.6176 11.3 15.3893C11.5035 15.1697 12.2525 15.1078 12.5411 15.1182C12.6056 14.7165 12.7722 14.6144 12.8467 14.3607C12.7251 14.2219 12.5783 14.0312 12.4736 13.8803C12.2041 13.4917 12.1569 13.3216 12.2343 12.8684C12.3578 12.4847 13.0139 11.9969 13.2758 11.693C13.47 11.4675 13.8297 11.2812 14.1159 11.4071C14.4639 11.56 14.8814 11.8961 15.1793 12.1341C15.3699 11.9682 15.6594 11.8469 15.9042 11.791Z" fill="#FF8A12"/>
<path d="M12.286 19.8525C12.3956 19.943 12.4117 20.2355 12.4783 20.2874C12.8073 20.544 13.4859 21.4591 13.8872 21.4455C14.1549 21.4363 14.9149 20.8553 15.1858 20.686C15.3985 20.8047 15.8558 21.0137 16.0963 21.0811C16.4747 22.9077 16.36 22.6246 18.2746 22.5995C18.6603 22.5944 18.8364 21.3299 18.886 21.0392C19.1633 20.9827 19.534 20.8402 19.7981 20.7224C19.9939 20.8475 20.3179 21.078 20.4924 21.2074C21.1788 21.7155 21.329 21.4254 21.8289 20.9157C22.1235 20.6254 22.4501 20.3711 22.7292 20.0287C22.7439 20.3847 22.7896 20.564 22.5226 20.8434C22.2356 21.1435 21.9088 21.4528 21.6183 21.7396C21.0612 22.2892 20.6212 21.9527 20.1274 21.5585C20.0274 21.4789 19.8967 21.3838 19.7918 21.3042C19.5667 21.4052 19.2257 21.5308 18.9875 21.6045C18.7832 23.4607 18.4022 23.1406 16.7501 23.1341C16.073 23.1317 15.9523 22.0924 15.8862 21.6006C15.6296 21.5012 15.3916 21.4075 15.1401 21.2958C14.6358 21.6547 14.1373 22.241 13.4916 21.8868L13.3697 21.7862C13.107 21.5316 12.8465 21.275 12.5883 21.0159C12.2484 20.6736 12.07 20.3329 12.286 19.8525Z" fill="#E74803"/>
<path d="M11.0907 17.5561C11.094 17.4282 11.0991 17.3004 11.1058 17.1724C11.591 17.8311 12.0167 17.6972 12.7808 17.844C12.9039 18.1982 12.9917 18.4282 13.157 18.7698C13.0896 18.8614 12.9637 19.0584 12.8624 19.0939L12.8404 19.0648C12.7206 18.8124 12.5989 18.5671 12.5005 18.3056C11.9426 18.2468 11.1895 18.2623 11.0907 17.5561Z" fill="#E74803"/>
<path d="M12.2342 12.8677C12.3667 12.9336 12.45 13.1396 12.5353 13.2737C12.7013 13.5344 12.9496 13.7781 13.0655 14.0619L13.0786 14.0933C13.081 14.0999 13.0835 14.1062 13.0859 14.1125C13.012 14.1868 12.9122 14.2816 12.8467 14.3599C12.725 14.2211 12.5782 14.0305 12.4735 13.8796C12.204 13.4909 12.1569 13.3209 12.2342 12.8677Z" fill="#E74803"/>
<path d="M17.2224 13.7804C18.7212 13.6444 20.0479 14.7456 20.1906 16.2438C20.3331 17.742 19.2378 19.0736 17.7405 19.2228C16.2333 19.3732 14.8915 18.2695 14.748 16.7619C14.6045 15.2541 15.714 13.9172 17.2224 13.7804Z" fill="#FEFEFE"/>
<path d="M0.283815 6.08969C0.339484 5.94897 0.716145 5.60826 0.850041 5.47592L2.10598 4.25769C3.08678 3.2963 4.04038 2.30663 5.03959 1.36227C5.40974 1.01245 5.58018 0.833401 6.13583 0.843772C6.36496 0.845099 7.16917 0.831891 7.34542 0.85253C7.64631 0.95556 8.99646 0.787062 9.22575 0.93094C9.28274 0.966706 9.76909 1.80493 9.78769 1.90071L9.77305 1.94648C9.36808 1.94234 8.9248 1.94887 8.52075 1.94807C8.26149 1.94756 7.50725 1.94068 7.26593 1.98974C7.12179 1.99198 6.97762 1.99325 6.83346 1.99356L6.83554 4.30276C6.8354 4.58697 6.85681 5.25383 6.80282 5.50131C6.72988 5.83753 6.56395 6.14648 6.32394 6.39298C6.099 6.62482 5.814 6.78953 5.50081 6.86863C5.17285 6.94859 4.39699 6.91638 4.01556 6.91971C3.14667 6.92734 2.26719 6.90866 1.39747 6.92369L1.39579 7.91147L1.39792 16.7134L1.39894 19.3554C1.39894 19.7781 1.38993 20.2187 1.40424 20.6413C1.40876 20.7748 1.48218 20.9136 1.57476 21.0087C1.73536 21.1741 2.09408 21.1628 2.31682 21.1483C2.88945 21.1112 3.52907 20.9848 4.0896 20.8611C6.42161 20.3463 8.56835 19.4229 10.2308 17.662C10.2816 18.0966 10.485 18.4167 10.8245 18.6854C10.8571 18.7117 10.8906 18.7372 10.9245 18.7621C11.2795 18.9602 11.384 19.0112 11.7927 19.0418C11.4463 19.4466 11.2991 19.8416 11.343 20.3765C11.3626 20.6384 11.4395 20.8928 11.5681 21.1216C11.75 21.3604 11.8866 21.4929 12.105 21.695C12.1773 21.7659 12.3657 21.9582 12.4368 22.0092C12.5366 22.1076 12.7575 22.3428 12.8757 22.3895L12.8855 22.4301C12.8285 22.454 12.5043 22.4359 12.4225 22.4346C12.1475 22.4326 11.8723 22.4324 11.5973 22.4336L8.33151 22.4328L3.87743 22.4342L2.49001 22.435C2.24106 22.435 1.87983 22.4438 1.63945 22.4218C1.34316 22.3952 1.05941 22.2897 0.817808 22.1162C0.436737 21.8414 0.181458 21.4256 0.108886 20.9616C0.0583403 20.6347 0.0808774 19.644 0.0804487 19.2653L0.0787343 15.8209L0.0795716 9.83231L0.0782645 7.81201C0.0779787 7.39862 0.0743653 6.9793 0.0929422 6.56632C0.101292 6.38051 0.175355 6.2373 0.283815 6.08969Z" fill="#1954A1"/>
<path d="M0.283813 6.08912C0.339483 5.9484 0.716144 5.60769 0.85004 5.47535L2.10598 4.25711C3.08677 3.29573 4.04038 2.30606 5.03959 1.3617C5.40974 1.01188 5.58017 0.832829 6.13583 0.8432C5.95247 0.999837 5.86062 1.08072 5.85166 1.33912C5.84005 1.67412 5.84588 2.02054 5.84672 2.35589L5.84842 4.1757C5.84984 4.68291 5.9524 5.43223 5.5303 5.78772C5.18018 6.08261 4.68281 5.99029 4.24817 5.9896L1.87381 5.9895C1.44427 5.98929 0.988978 5.97845 0.562058 6.00526C0.476604 6.01063 0.36549 6.0567 0.283813 6.08912Z" fill="#1FBECB"/>
<path d="M10.9244 18.7622C11.2794 18.9602 11.3839 19.0113 11.7926 19.0419C11.4461 19.4467 11.299 19.8417 11.3429 20.3766C11.3625 20.6385 11.4394 20.8928 11.568 21.1217C11.52 21.1492 6.30077 21.2041 6.12366 21.1529C6.13513 21.147 7.14355 20.9026 7.2675 20.8669C8.29039 20.5707 9.19321 20.1765 10.0627 19.5557C10.3089 19.3799 10.61 19.2042 10.8131 18.9678C10.8364 18.941 10.8995 18.8073 10.9244 18.7622Z" fill="#1861AE"/>
<path d="M7.34548 0.852499L13.3473 0.849376L15.0184 0.847906C15.7061 0.847804 16.2949 0.791441 16.8361 1.3335C17.2468 1.74478 17.3642 2.12222 17.3654 2.69547L17.3619 3.76365C18.0536 3.76312 18.6401 3.66297 19.1547 4.18304C19.3544 4.38651 19.4899 4.64412 19.5446 4.92391C19.5814 5.12307 19.5707 5.48338 19.5703 5.6975L19.5677 6.88654C19.5648 8.12368 19.5836 9.38758 19.5689 10.6195C19.5685 10.6511 19.5673 10.6827 19.5654 10.7142C19.5326 10.6372 19.5244 10.5374 19.5124 10.4543C19.4587 10.0805 19.1925 9.81062 18.8918 9.60303C18.6143 9.41154 18.3481 9.34216 18.0103 9.34003L17.0951 9.34199C17.0894 9.26634 17.1131 9.15866 17.1266 9.08084C17.0263 9.10121 17.1427 9.09574 17.0576 9.15478C17.0171 9.15033 16.9792 9.14745 16.9477 9.12134C16.8385 9.03009 16.6721 9.06967 16.5056 9.06791C16.4619 9.02243 16.4629 9.01247 16.4076 8.99081C16.3606 9.08986 16.3578 9.06675 16.2563 9.0613C16.2661 8.96143 16.2812 8.87233 16.282 8.77075C16.2933 7.4551 16.2816 6.1391 16.2851 4.82329L16.2908 3.3864C16.2926 2.93108 16.417 2.08055 15.7602 2.00516C15.5153 1.97703 15.2152 1.99273 14.9635 1.99277L13.4365 1.99295L8.13082 1.99338L7.26599 1.98971C7.50731 1.94065 8.26155 1.94753 8.52081 1.94804C8.92486 1.94884 9.36813 1.94231 9.77311 1.94645L9.78775 1.90068C9.76915 1.8049 9.2828 0.966676 9.22581 0.93091C8.99652 0.787031 7.64637 0.955529 7.34548 0.852499Z" fill="#1D91DB"/>
<path d="M17.3618 3.76345C18.0534 3.76292 18.6399 3.66276 19.1546 4.18283C19.3542 4.3863 19.4898 4.64391 19.5445 4.9237C19.5812 5.12286 19.5706 5.48317 19.5702 5.6973L19.5675 6.88634C19.5647 8.12347 19.5835 9.38737 19.5688 10.6193C19.5684 10.6509 19.5671 10.6825 19.5653 10.714C19.5324 10.637 19.5243 10.5372 19.5122 10.4541C19.4585 10.0803 19.1923 9.81041 18.8916 9.60282C18.6142 9.41134 18.348 9.34195 18.0102 9.33983L17.095 9.34179C17.0893 9.26613 17.113 9.15845 17.1264 9.08063C17.3665 7.81246 17.3545 6.39303 17.3604 5.1039C17.3602 4.6535 17.3555 4.21517 17.3618 3.76345Z" fill="#1861AE"/>
<path d="M17.3604 5.10375C17.4735 5.10046 17.6662 5.10075 17.7676 5.09361C18.3053 5.05568 18.2604 5.30685 18.27 5.73939C18.2731 5.87298 18.2696 6.03041 18.2713 6.16621C18.2527 7.02045 18.3237 7.89783 18.2067 8.74559C18.1916 8.85917 18.0773 9.26566 18.0102 9.33968L17.095 9.34164C17.0893 9.26599 17.113 9.1583 17.1264 9.08048C17.3665 7.81232 17.3545 6.39288 17.3604 5.10375Z" fill="#1954A1"/>
<path d="M7.26589 1.98926L8.13072 1.99293L8.13492 3.65283C8.13529 4.36936 8.16471 4.89653 7.95385 5.6006C7.51203 7.0758 5.92191 7.92358 4.44625 7.92236L2.55033 7.91511C2.23075 7.9158 1.69384 7.9352 1.39575 7.91098L1.39743 6.92321C2.26715 6.90818 3.14663 6.92686 4.01552 6.91923C4.39695 6.9159 5.17281 6.94811 5.50076 6.86815C5.81396 6.78904 6.09896 6.62434 6.3239 6.3925C6.56391 6.146 6.72984 5.83705 6.80278 5.50083C6.85677 5.25335 6.83536 4.58648 6.8355 4.30228L6.83342 1.99308C6.97758 1.99277 7.12175 1.9915 7.26589 1.98926Z" fill="#EEEEEE"/>
<path d="M16.7073 10.1971C16.9741 10.1776 17.2879 10.188 17.558 10.1907C17.8817 10.194 18.269 10.1308 18.5303 10.3469C18.4797 10.3908 18.4752 10.3943 18.4352 10.4476C18.3915 10.4135 18.3149 10.3626 18.2596 10.3579C17.7699 10.3164 17.174 10.3357 16.6814 10.3379C16.7518 10.3201 16.7955 10.3164 16.8494 10.2682C16.8139 10.2148 16.7859 10.2225 16.7073 10.1971Z" fill="#FFBD0F"/>
<path d="M16.2563 9.06121C16.3578 9.06666 16.3607 9.08977 16.4076 8.99072C16.4629 9.01238 16.4619 9.02234 16.5056 9.06783C16.6722 9.06958 16.8386 9.03 16.9478 9.12125C16.9792 9.14736 17.0172 9.15024 17.0576 9.15469C17.1427 9.09565 17.0264 9.10112 17.1266 9.08075C17.1131 9.15857 17.0894 9.26625 17.0952 9.34191C16.7104 9.33858 16.606 9.33086 16.2451 9.44692C16.2565 9.30469 16.258 9.20427 16.2563 9.06121Z" fill="#1861AE"/>
<path d="M4.33454 8.20147C6.13258 8.18203 7.96801 8.20167 9.76911 8.2014L11.8745 8.20053C12.2605 8.2004 12.641 8.19638 13.0318 8.20643C13.4984 8.21843 13.7485 8.75028 13.5327 9.14405C13.4351 9.32189 13.2712 9.3953 13.0824 9.44479C12.5865 9.46045 12.0319 9.44911 11.5307 9.44901L8.69234 9.44944L5.99801 9.44891C5.48469 9.44928 4.97189 9.45059 4.45862 9.44607C4.15743 9.44342 3.92652 9.3046 3.83144 9.00599C3.7815 8.84833 3.79661 8.67724 3.87339 8.53077C3.9767 8.33354 4.13691 8.26222 4.33454 8.20147Z" fill="#2CD4AE"/>
<path d="M4.33486 10.7531C5.57065 10.7278 6.89105 10.7508 8.13143 10.7506L9.89368 10.7505C10.1207 10.7506 10.9901 10.7229 11.1328 10.7968C11.6842 11.0827 11.6305 11.8075 11.002 11.9986C9.69003 12.0154 8.34258 12.0008 7.02781 12.0034L5.38986 12.0049C5.07405 12.0049 4.76339 12.0009 4.43805 11.9989C3.94084 11.9959 3.67179 11.5232 3.87501 11.082C3.95689 10.9043 4.14911 10.8066 4.33486 10.7531Z" fill="#1CA5E5"/>
<path d="M4.35314 13.3293C5.29292 13.2993 6.42019 13.3291 7.37559 13.3291L8.72288 13.3281C8.99337 13.3281 9.58934 13.2891 9.80042 13.4236C9.93809 13.5128 10.0342 13.6533 10.0675 13.8139C10.1445 14.1808 9.92217 14.5007 9.55268 14.5599C7.85888 14.6083 6.13417 14.5386 4.43747 14.5631C3.70266 14.5735 3.52092 13.5059 4.35314 13.3293Z" fill="#1CA5E5"/>
<path d="M15.8725 9.16064L15.887 9.18145C15.8427 9.68329 15.6437 9.7991 15.3846 10.1796C15.2848 10.3264 15.2211 10.7115 15.107 10.873C15.0357 10.9019 15.0578 10.8925 14.9643 10.8629C14.9135 10.8314 14.9137 10.8324 14.8737 10.7885C14.9065 10.6317 15.3277 10.0451 15.4071 9.83647C15.4857 9.63037 15.7406 9.35039 15.8725 9.16064Z" fill="#EEEEEE"/>
<path d="M11.5111 14.105C11.5415 14.1646 11.5693 14.2356 11.5956 14.2977L11.407 14.3651L11.376 14.3769L11.3584 14.3659C11.4333 14.2693 11.4768 14.2246 11.5111 14.105Z" fill="#EEEEEE"/>
<path d="M12.1051 21.6943C12.2523 21.3024 12.2707 21.2977 12.5883 21.0151C12.8465 21.2742 13.107 21.5308 13.3698 21.7854C13.1187 21.9583 12.976 21.9221 12.6902 21.9589C12.5952 21.9711 12.5405 22.0048 12.4368 22.0085C12.3658 21.9575 12.1774 21.7651 12.1051 21.6943Z" fill="#EEEEEE"/>
<path d="M13.3697 21.7861L13.4916 21.8868C13.3691 22.0274 13.3715 22.0681 13.2903 22.2061C13.2376 22.2953 12.9965 22.3163 12.8757 22.3896C12.7575 22.3428 12.5366 22.1077 12.4368 22.0093C12.5405 22.0056 12.5952 21.9719 12.6901 21.9597C12.9759 21.9229 13.1186 21.959 13.3697 21.7861Z" fill="#7C7989"/>
</g>
<defs>
<clipPath id="clip0_410_276">
<rect width="24" height="24" fill="white"/>
</clipPath>
</defs>
</svg>
